<svg width="48" height="48" viewBox="0 0 48 48" fill="none" xmlns="http://www.w3.org/2000/svg">
<rect width="48" height="48" rx="24" fill="white"/>
<path d="M31 25V30C31 30.55 30.55 31 30 31H18C17.45 31 17 30.55 17 30V25C17 24.45 16.55 24 16 24C15.45 24 15 24.45 15 25V31C15 32.1 15.9 33 17 33H31C32.1 33 33 32.1 33 31V25C33 24.45 32.55 24 32 24C31.45 24 31 24.45 31 25ZM25 24.67L26.88 22.79C27.27 22.4 27.9 22.4 28.29 22.79C28.68 23.18 28.68 23.81 28.29 24.2L24.7 27.79C24.31 28.18 23.68 28.18 23.29 27.79L19.7 24.2C19.31 23.81 19.31 23.18 19.7 22.79C20.09 22.4 20.72 22.4 21.11 22.79L23 24.67V16C23 15.45 23.45 15 24 15C24.55 15 25 15.45 25 16V24.67Z" fill="#48D4D3"/>
</svg>
